<!-- <svg fill="none" height="36" viewBox="0 0 36 36" width="36" xmlns="http://www.w3.org/2000/svg"><rect fill="#000" fill-opacity=".2" height="36" rx="17.5" width="36"/><path d="m8.83301 23.3462v1.529c0 1.264 3.07939 2.2916 6.87499 2.2916s6.875-1.0276 6.875-2.2916v-1.529c-1.4788 1.042-4.1823 1.529-6.875 1.529s-5.3962-.487-6.87499-1.529zm11.45829-9.9294c3.7956 0 6.875-1.0276 6.875-2.2916 0-1.26403-3.0794-2.2917-6.875-2.2917-3.7955 0-6.875 1.02767-6.875 2.2917 0 1.264 3.0795 2.2916 6.875 2.2916zm-11.45829 6.1732v1.8477c0 1.264 3.07939 2.2916 6.87499 2.2916s6.875-1.0276 6.875-2.2916v-1.8477c-1.4788 1.2175-4.1859 1.8477-6.875 1.8477s-5.3962-.6302-6.87499-1.8477zm14.89579.3939c2.0518-.3975 3.4375-1.1351 3.4375-1.9837v-1.529c-.8307.5872-2.0517.9883-3.4375 1.2353zm-8.0208-5.4212c-3.7956 0-6.87499 1.2819-6.87499 2.8645 0 1.5827 3.07939 2.8646 6.87499 2.8646s6.875-1.2819 6.875-2.8646c0-1.5826-3.0794-2.8645-6.875-2.8645zm7.8525 2.0159c2.1485-.3867 3.6058-1.1458 3.6058-2.0159v-1.529c-1.2711.8988-3.4554 1.3822-5.7542 1.4967 1.0563.5121 1.8333 1.1996 2.1484 2.0482z" fill="#fafafa"/></svg> -->

<svg width="40" height="40" viewBox="0 0 40 40" fill="none" xmlns="http://www.w3.org/2000/svg">
<g clip-path="url(#clip0_214_93714)">
<path fill-rule="evenodd" clip-rule="evenodd" d="M20 40C31.0457 40 40 31.0457 40 20C40 8.95431 31.0457 0 20 0C8.95431 0 0 8.95431 0 20C0 31.0457 8.95431 40 20 40Z" fill="black" fill-opacity="0.2"/>
<path d="M26.6 10L15.4 10C15.1791 10 15 10.1791 15 10.4V12.6C15 12.8209 15.1791 13 15.4 13L26.6 13C26.8209 13 27 12.8209 27 12.6V10.4C27 10.1791 26.8209 10 26.6 10Z" fill="white"/>
<path d="M16 30C19.3137 30 22 27.3137 22 24C22 20.6863 19.3137 18 16 18C12.6863 18 10 20.6863 10 24C10 27.3137 12.6863 30 16 30Z" fill="white"/>
<path d="M18.4 15L29.6 15C29.8209 15 30 15.1791 30 15.3999V17.6C30 17.8209 29.8209 18 29.6 18L21.2793 18C20.3513 17.1828 19.2343 16.5806 18 16.2622V15.3999C18 15.1791 18.1791 15 18.4 15Z" fill="white"/>
<path d="M29.6 20L22.921 20C23.4445 20.9036 23.7955 21.9172 23.9309 23L29.6 23C29.8209 23 30 22.8209 30 22.6L30 20.3999C30 20.1791 29.8209 20 29.6 20Z" fill="white"/>
<path d="M23.9309 25L29.6 25C29.8209 25 30 25.1791 30 25.3999V27.6C30 27.8209 29.8209 28 29.6 28H22.921C23.4445 27.0964 23.7955 26.0828 23.9309 25Z" fill="white"/>
</g>
<defs>
<clipPath id="clip0_214_93714">
<rect width="40" height="40" fill="white"/>
</clipPath>
</defs>
</svg>
