<svg fill="none" height="36" viewBox="0 0 36 36" width="36" xmlns="http://www.w3.org/2000/svg" xmlns:xlink="http://www.w3.org/1999/xlink"><clipPath id="a"><path d="m8.83333 8.83331h18.3333v18.3333h-18.3333z"/></clipPath><path clip-rule="evenodd" d="m18 36c9.9411 0 18-8.0589 18-18 0-9.94113-8.0589-18-18-18-9.94113 0-18 8.05887-18 18 0 9.9411 8.05887 18 18 18z" fill="#000" fill-opacity=".2" fill-rule="evenodd"/><g clip-path="url(#a)"><path d="m24.875 8.83331h-13.75c-1.264 0-2.29167 1.02767-2.29167 2.29169v10.3125c0 1.264 1.02767 2.2916 2.29167 2.2916h3.4375v3.0079c0 .3509.401.555.6839.3473l4.4723-3.3552h5.1563c1.264 0 2.2917-1.0276 2.2917-2.2916v-10.3125c0-1.26402-1.0277-2.29169-2.2917-2.29169z" fill="#7373ab"/><path d="m24.875 8.83331h-13.75c-1.264 0-2.29167 1.02767-2.29167 2.29169v10.3125c0 1.264 1.02767 2.2916 2.29167 2.2916h3.4375v3.0079c0 .3509.401.555.6839.3473l4.4723-3.3552h5.1563c1.264 0 2.2917-1.0276 2.2917-2.2916v-10.3125c0-1.26402-1.0277-2.29169-2.2917-2.29169z" fill="#5454d1"/><path d="m24.875 8.83331h-13.75c-1.264 0-2.29167 1.02767-2.29167 2.29169v10.3125c0 1.264 1.02767 2.2916 2.29167 2.2916h3.4375v3.0079c0 .3509.401.555.6839.3473l4.4723-3.3552h5.1563c1.264 0 2.2917-1.0276 2.2917-2.2916v-10.3125c0-1.26402-1.0277-2.29169-2.2917-2.29169z" fill="#fbfbfb"/></g></svg>