<svg fill="none" height="40" viewBox="0 0 40 40" width="40" xmlns="http://www.w3.org/2000/svg"><path clip-rule="evenodd" d="m20 40c11.0457 0 20-8.9543 20-20 0-11.04569-8.9543-20-20-20-11.04569 0-20 8.95431-20 20 0 11.0457 8.95431 20 20 20z" fill="#000" fill-opacity=".2" fill-rule="evenodd"/><path d="m21.841 13h-11.0153c-1.00834 0-1.8257.7802-1.8257 1.7427v10.5146c0 .9625.81736 1.7427 1.8257 1.7427h11.0153c1.0083 0 1.8257-.7802 1.8257-1.7427v-10.5146c0-.9625-.8174-1.7427-1.8257-1.7427zm7.234 1.3745-4.1861 2.7562v5.7386l4.1861 2.7526c.8097.5323 1.925-.011 1.925-.9407v-9.3661c0-.926-1.1115-1.4729-1.925-.9406z" fill="#7373ab"/><path d="m21.841 13h-11.0153c-1.00834 0-1.8257.7802-1.8257 1.7427v10.5146c0 .9625.81736 1.7427 1.8257 1.7427h11.0153c1.0083 0 1.8257-.7802 1.8257-1.7427v-10.5146c0-.9625-.8174-1.7427-1.8257-1.7427zm7.234 1.3745-4.1861 2.7562v5.7386l4.1861 2.7526c.8097.5323 1.925-.011 1.925-.9407v-9.3661c0-.926-1.1115-1.4729-1.925-.9406z" fill="#5454d1"/><path d="m21.841 13h-11.0153c-1.00834 0-1.8257.7802-1.8257 1.7427v10.5146c0 .9625.81736 1.7427 1.8257 1.7427h11.0153c1.0083 0 1.8257-.7802 1.8257-1.7427v-10.5146c0-.9625-.8174-1.7427-1.8257-1.7427zm7.234 1.3745-4.1861 2.7562v5.7386l4.1861 2.7526c.8097.5323 1.925-.011 1.925-.9407v-9.3661c0-.926-1.1115-1.4729-1.925-.9406z" fill="#fbfbfb"/></svg>