<svg fill="none" height="60" viewBox="0 0 60 60" width="60" xmlns="http://www.w3.org/2000/svg"><g clip-rule="evenodd" fill-rule="evenodd"><path d="m30 60c16.5685 0 30-13.4315 30-30s-13.4315-30-30-30-30 13.4315-30 30 13.4315 30 30 30z" fill="#000" fill-opacity=".2"/><path d="m18.5479 39.2579h12.1588c-.1654-.5678.0604-1.1054.3015-1.4465l2.0745-2.9871c-.1362-.0972-.3218-.1482-.5511-.1482h-6.8934l3.9719-3.481c.8361-.7445 1.6066-1.6316 2.2032-2.5896l-.6342-.9197c-.2965-.4207-.5689-1.1382-.1168-1.843.4392-.6846 1.2378-.8411 1.7605-.8411h.1991c.0014-.048.002-.0959.002-.1438 0-4.7604-3.8077-6.843-7.6483-6.843-3.6436 0-7.2216 1.8744-7.6155 6.1884-.0328.5058.2626.7736.7878.7736h3.6437c.4923 0 .7549-.238.8534-.7141.2626-1.1008 1.0833-1.6066 2.4619-1.6066 1.4772 0 2.265.8033 2.265 2.2017 0 1.3091-1.1161 2.7669-2.3963 3.957l-7.2216 6.605c-.2954.2677-.4267.5652-.4267.9223v2.1719c0 .476.2954.7438.8206.7438zm22.2311-6.6124 4.0785 5.8314c.316.4425.0862.781-.4882.781h-2.9871c-.3734 0-.6607-.1562-.8617-.4426l-2.0106-2.8897-2.0105 2.8897c-.2011.2864-.4883.4426-.8617.4426h-2.9871c-.5745 0-.8042-.3385-.4883-.781l4.0499-5.8314-3.8776-5.6232c-.3159-.4425-.0861-.781.4883-.781h2.9871c.3734 0 .6606.1562.8617.4426l1.8382 2.6554 1.8383-2.6554c.201-.2864.4882-.4426.8616-.4426h2.9871c.5745 0 .8043.3385.4883.781z" fill="#fff"/></g></svg>