<svg fill="none" height="40" viewBox="0 0 40 40" width="40" xmlns="http://www.w3.org/2000/svg" xmlns:xlink="http://www.w3.org/1999/xlink"><clipPath id="a"><path d="m9 9h22v22h-22z"/></clipPath><path clip-rule="evenodd" d="m20 40c11.0457 0 20-8.9543 20-20 0-11.04569-8.9543-20-20-20-11.04569 0-20 8.95431-20 20 0 11.0457 8.95431 20 20 20z" fill="#000" fill-opacity=".2" fill-rule="evenodd"/><g clip-path="url(#a)"><path d="m30.0833 23.9613v5.0417c.0004.142-.0273.2826-.0815.4138-.0541.1313-.1337.2505-.2341.3509s-.2196.18-.3509.2341c-.1312.0542-.2718.0819-.4138.0815h-5.0417c-.9629 0-1.4445-1.1658-.7652-1.8456l1.6295-1.6295-4.8256-4.8256-4.8269 4.8301 1.6308 1.625c.6793.6798.1977 1.8456-.7652 1.8456h-5.0417c-.1419.0004-.2826-.0273-.4138-.0815-.1313-.0541-.2505-.1337-.3509-.2341s-.1799-.2196-.23411-.3509c-.05417-.1312-.08187-.2718-.08151-.4138v-5.0417c0-.9633 1.16542-1.4449 1.84562-.7652l1.6291 1.6295 4.8287-4.8256-4.8292-4.8301-1.6286 1.6341c-.6797.6797-1.84562.198-1.84562-.7653v-5.0417c-.00036-.1419.02734-.2826.08151-.4138.05421-.1312.13371-.2505.23411-.3509s.2196-.1799.3509-.2341c.1312-.05416.2719-.08187.4138-.08151h5.0417c.9629 0 1.4445 1.16591.7652 1.84561l-1.6295 1.6295 4.8256 4.8256 4.8269-4.8301-1.6308-1.625c-.6793-.6797-.1977-1.84561.7652-1.84561h5.0417c.142-.00036.2826.02735.4138.08151.1313.0542.2505.1337.3509.2341s.18.2197.2341.3509c.0542.1312.0819.2719.0815.4138v5.0417c0 .9633-1.1654 1.445-1.8456.7653l-1.6291-1.6296-4.8287 4.8256 4.8292 4.8301 1.6286-1.6295c.6797-.6842 1.8456-.2026 1.8456.7607z" fill="#7373ab"/><path d="m30.0833 23.9613v5.0417c.0004.142-.0273.2826-.0815.4138-.0541.1313-.1337.2505-.2341.3509s-.2196.18-.3509.2341c-.1312.0542-.2718.0819-.4138.0815h-5.0417c-.9629 0-1.4445-1.1658-.7652-1.8456l1.6295-1.6295-4.8256-4.8256-4.8269 4.8301 1.6308 1.625c.6793.6798.1977 1.8456-.7652 1.8456h-5.0417c-.1419.0004-.2826-.0273-.4138-.0815-.1313-.0541-.2505-.1337-.3509-.2341s-.1799-.2196-.23411-.3509c-.05417-.1312-.08187-.2718-.08151-.4138v-5.0417c0-.9633 1.16542-1.4449 1.84562-.7652l1.6291 1.6295 4.8287-4.8256-4.8292-4.8301-1.6286 1.6341c-.6797.6797-1.84562.198-1.84562-.7653v-5.0417c-.00036-.1419.02734-.2826.08151-.4138.05421-.1312.13371-.2505.23411-.3509s.2196-.1799.3509-.2341c.1312-.05416.2719-.08187.4138-.08151h5.0417c.9629 0 1.4445 1.16591.7652 1.84561l-1.6295 1.6295 4.8256 4.8256 4.8269-4.8301-1.6308-1.625c-.6793-.6797-.1977-1.84561.7652-1.84561h5.0417c.142-.00036.2826.02735.4138.08151.1313.0542.2505.1337.3509.2341s.18.2197.2341.3509c.0542.1312.0819.2719.0815.4138v5.0417c0 .9633-1.1654 1.445-1.8456.7653l-1.6291-1.6296-4.8287 4.8256 4.8292 4.8301 1.6286-1.6295c.6797-.6842 1.8456-.2026 1.8456.7607z" fill="#5454d1"/><path d="m30.0833 23.9613v5.0417c.0004.142-.0273.2826-.0815.4138-.0541.1313-.1337.2505-.2341.3509s-.2196.18-.3509.2341c-.1312.0542-.2718.0819-.4138.0815h-5.0417c-.9629 0-1.4445-1.1658-.7652-1.8456l1.6295-1.6295-4.8256-4.8256-4.8269 4.8301 1.6308 1.625c.6793.6798.1977 1.8456-.7652 1.8456h-5.0417c-.1419.0004-.2826-.0273-.4138-.0815-.1313-.0541-.2505-.1337-.3509-.2341s-.1799-.2196-.23411-.3509c-.05417-.1312-.08187-.2718-.08151-.4138v-5.0417c0-.9633 1.16542-1.4449 1.84562-.7652l1.6291 1.6295 4.8287-4.8256-4.8292-4.8301-1.6286 1.6341c-.6797.6797-1.84562.198-1.84562-.7653v-5.0417c-.00036-.1419.02734-.2826.08151-.4138.05421-.1312.13371-.2505.23411-.3509s.2196-.1799.3509-.2341c.1312-.05416.2719-.08187.4138-.08151h5.0417c.9629 0 1.4445 1.16591.7652 1.84561l-1.6295 1.6295 4.8256 4.8256 4.8269-4.8301-1.6308-1.625c-.6793-.6797-.1977-1.84561.7652-1.84561h5.0417c.142-.00036.2826.02735.4138.08151.1313.0542.2505.1337.3509.2341s.18.2197.2341.3509c.0542.1312.0819.2719.0815.4138v5.0417c0 .9633-1.1654 1.445-1.8456.7653l-1.6291-1.6296-4.8287 4.8256 4.8292 4.8301 1.6286-1.6295c.6797-.6842 1.8456-.2026 1.8456.7607z" fill="#fbfbfb"/></g></svg>