<svg fill="none" height="40" viewBox="0 0 40 40" width="40" xmlns="http://www.w3.org/2000/svg"><path clip-rule="evenodd" d="m20 40c11.0457 0 20-8.9543 20-20 0-11.04569-8.9543-20-20-20-11.04569 0-20 8.95431-20 20 0 11.0457 8.95431 20 20 20z" fill="#000" fill-opacity=".2" fill-rule="evenodd"/><path d="m31 20c0 6.0765-4.9253 11-11 11s-11-4.9235-11-11c0-6.0729 4.9253-11 11-11s11 4.9271 11 11zm-10.7048-7.3629c-2.4172 0-3.9589 1.0183-5.1695 2.828-.1569.2344-.1044.5506.1204.7211l1.5391 1.167c.2308.175.5598.1334.7391-.0942.7924-1.0049 1.3357-1.5877 2.5417-1.5877.9061 0 2.0269.5832 2.0269 1.4618 0 .6643-.5483 1.0054-1.443 1.507-1.0434.5849-2.4241 1.3129-2.4241 3.1341v.1774c0 .294.2383.5323.5323.5323h2.4838c.294 0 .5323-.2383.5323-.5323v-.0591c0-1.2624 3.6897-1.315 3.6897-4.7312 0-2.5727-2.6686-4.5242-5.1687-4.5242zm-.2952 11c-1.1251 0-2.0403.9153-2.0403 2.0403s.9152 2.0403 2.0403 2.0403 2.0403-.9153 2.0403-2.0403-.9152-2.0403-2.0403-2.0403z" fill="#7373ab"/><path d="m31 20c0 6.0765-4.9253 11-11 11s-11-4.9235-11-11c0-6.0729 4.9253-11 11-11s11 4.9271 11 11zm-10.7048-7.3629c-2.4172 0-3.9589 1.0183-5.1695 2.828-.1569.2344-.1044.5506.1204.7211l1.5391 1.167c.2308.175.5598.1334.7391-.0942.7924-1.0049 1.3357-1.5877 2.5417-1.5877.9061 0 2.0269.5832 2.0269 1.4618 0 .6643-.5483 1.0054-1.443 1.507-1.0434.5849-2.4241 1.3129-2.4241 3.1341v.1774c0 .294.2383.5323.5323.5323h2.4838c.294 0 .5323-.2383.5323-.5323v-.0591c0-1.2624 3.6897-1.315 3.6897-4.7312 0-2.5727-2.6686-4.5242-5.1687-4.5242zm-.2952 11c-1.1251 0-2.0403.9153-2.0403 2.0403s.9152 2.0403 2.0403 2.0403 2.0403-.9153 2.0403-2.0403-.9152-2.0403-2.0403-2.0403z" fill="#5454d1"/><path d="m31 20c0 6.0765-4.9253 11-11 11s-11-4.9235-11-11c0-6.0729 4.9253-11 11-11s11 4.9271 11 11zm-10.7048-7.3629c-2.4172 0-3.9589 1.0183-5.1695 2.828-.1569.2344-.1044.5506.1204.7211l1.5391 1.167c.2308.175.5598.1334.7391-.0942.7924-1.0049 1.3357-1.5877 2.5417-1.5877.9061 0 2.0269.5832 2.0269 1.4618 0 .6643-.5483 1.0054-1.443 1.507-1.0434.5849-2.4241 1.3129-2.4241 3.1341v.1774c0 .294.2383.5323.5323.5323h2.4838c.294 0 .5323-.2383.5323-.5323v-.0591c0-1.2624 3.6897-1.315 3.6897-4.7312 0-2.5727-2.6686-4.5242-5.1687-4.5242zm-.2952 11c-1.1251 0-2.0403.9153-2.0403 2.0403s.9152 2.0403 2.0403 2.0403 2.0403-.9153 2.0403-2.0403-.9152-2.0403-2.0403-2.0403z" fill="#fbfbfb"/></svg>