<svg width="43" height="43" viewBox="0 0 43 43" fill="none" xmlns="http://www.w3.org/2000/svg">
<rect y="3" width="40" height="40" rx="20" fill="#000" fill-opacity=".2" fill-rule="evenodd"/>
<path d="M27 19.9973V19.9823C26.9905 16.1309 23.8538 12.9998 20 12.9998C16.1401 12.9998 13 16.14 13 19.9998C11.8955 19.9998 11 20.8951 11 21.9998V24.9998C11 26.1044 11.8955 26.9998 13 26.9998H15.6C15.8209 26.9998 16 26.8207 16 26.5997V20.0001C16 17.791 17.7909 16.0001 20 16.0001C22.2091 16.0001 24 17.791 24 20.0001V26.0001L23.9961 25.9982C23.9961 27.4115 23.7358 29.317 22.6315 29.8473C22.2692 29.3363 21.6759 29.0004 21.0018 29.0004H18.998C17.8936 29.0004 16.998 29.8959 16.998 31.0004C16.998 32.105 17.8936 33.0004 18.998 33.0004H21.0018C21.7737 33.0004 22.4356 32.5585 22.769 31.9183C24.9785 31.5282 25.9961 29.4789 25.9961 26.9982L25.9944 26.9973H27C28.1045 26.9973 29 26.1019 29 24.9973V21.9973C29 20.8927 28.1045 19.9973 27 19.9973Z" fill="white"/>
</svg>
