<svg width="86" height="40" viewBox="0 0 86 40" fill="none" xmlns="http://www.w3.org/2000/svg">
<rect x="1" y="1" width="84" height="38" rx="19" fill="#00020A" fill-opacity="0.75"/>
<path d="M19.435 24.668H23.827V26H17.797V13.454H19.435V24.668ZM29.7246 26.162C28.8006 26.162 27.9606 25.952 27.2046 25.532C26.4606 25.112 25.8726 24.518 25.4406 23.75C25.0206 22.97 24.8106 22.07 24.8106 21.05C24.8106 20.042 25.0266 19.154 25.4586 18.386C25.9026 17.606 26.5026 17.012 27.2586 16.604C28.0146 16.184 28.8606 15.974 29.7966 15.974C30.7326 15.974 31.5786 16.184 32.3346 16.604C33.0906 17.012 33.6846 17.6 34.1166 18.368C34.5606 19.136 34.7826 20.03 34.7826 21.05C34.7826 22.07 34.5546 22.97 34.0986 23.75C33.6546 24.518 33.0486 25.112 32.2806 25.532C31.5126 25.952 30.6606 26.162 29.7246 26.162ZM29.7246 24.722C30.3126 24.722 30.8646 24.584 31.3806 24.308C31.8966 24.032 32.3106 23.618 32.6226 23.066C32.9466 22.514 33.1086 21.842 33.1086 21.05C33.1086 20.258 32.9526 19.586 32.6406 19.034C32.3286 18.482 31.9206 18.074 31.4166 17.81C30.9126 17.534 30.3666 17.396 29.7786 17.396C29.1786 17.396 28.6266 17.534 28.1226 17.81C27.6306 18.074 27.2346 18.482 26.9346 19.034C26.6346 19.586 26.4846 20.258 26.4846 21.05C26.4846 21.854 26.6286 22.532 26.9166 23.084C27.2166 23.636 27.6126 24.05 28.1046 24.326C28.5966 24.59 29.1366 24.722 29.7246 24.722ZM38.4303 17.972C38.7663 17.384 39.2583 16.904 39.9062 16.532C40.5543 16.16 41.2923 15.974 42.1203 15.974C43.0083 15.974 43.8063 16.184 44.5143 16.604C45.2223 17.024 45.7803 17.618 46.1883 18.386C46.5963 19.142 46.8003 20.024 46.8003 21.032C46.8003 22.028 46.5963 22.916 46.1883 23.696C45.7803 24.476 45.2162 25.082 44.4962 25.514C43.7883 25.946 42.9963 26.162 42.1203 26.162C41.2683 26.162 40.5183 25.976 39.8703 25.604C39.2343 25.232 38.7543 24.758 38.4303 24.182V26H36.7923V12.68H38.4303V17.972ZM45.1263 21.032C45.1263 20.288 44.9763 19.64 44.6763 19.088C44.3763 18.536 43.9683 18.116 43.4523 17.828C42.9483 17.54 42.3903 17.396 41.7783 17.396C41.1783 17.396 40.6203 17.546 40.1043 17.846C39.6003 18.134 39.1923 18.56 38.8803 19.124C38.5803 19.676 38.4303 20.318 38.4303 21.05C38.4303 21.794 38.5803 22.448 38.8803 23.012C39.1923 23.564 39.6003 23.99 40.1043 24.29C40.6203 24.578 41.1783 24.722 41.7783 24.722C42.3903 24.722 42.9483 24.578 43.4523 24.29C43.9683 23.99 44.3763 23.564 44.6763 23.012C44.9763 22.448 45.1263 21.788 45.1263 21.032ZM50.4503 17.972C50.7863 17.384 51.2783 16.904 51.9263 16.532C52.5743 16.16 53.3123 15.974 54.1403 15.974C55.0283 15.974 55.8263 16.184 56.5343 16.604C57.2423 17.024 57.8003 17.618 58.2083 18.386C58.6163 19.142 58.8203 20.024 58.8203 21.032C58.8203 22.028 58.6163 22.916 58.2083 23.696C57.8003 24.476 57.2363 25.082 56.5163 25.514C55.8083 25.946 55.0163 26.162 54.1403 26.162C53.2883 26.162 52.5383 25.976 51.8903 25.604C51.2543 25.232 50.7743 24.758 50.4503 24.182V26H48.8123V12.68H50.4503V17.972ZM57.1463 21.032C57.1463 20.288 56.9963 19.64 56.6963 19.088C56.3963 18.536 55.9883 18.116 55.4723 17.828C54.9683 17.54 54.4103 17.396 53.7983 17.396C53.1983 17.396 52.6403 17.546 52.1243 17.846C51.6203 18.134 51.2123 18.56 50.9003 19.124C50.6003 19.676 50.4503 20.318 50.4503 21.05C50.4503 21.794 50.6003 22.448 50.9003 23.012C51.2123 23.564 51.6203 23.99 52.1243 24.29C52.6403 24.578 53.1983 24.722 53.7983 24.722C54.4103 24.722 54.9683 24.578 55.4723 24.29C55.9883 23.99 56.3963 23.564 56.6963 23.012C56.9963 22.448 57.1463 21.788 57.1463 21.032ZM69.3284 16.136L63.3884 30.644H61.6964L63.6404 25.892L59.6624 16.136H61.4804L64.5764 24.128L67.6364 16.136H69.3284Z" fill="white"/>
<rect x="1" y="1" width="84" height="38" rx="19" stroke="#F68B2A" stroke-width="2"/>
</svg>