<svg fill="none" height="40" viewBox="0 0 40 40" width="40" xmlns="http://www.w3.org/2000/svg"><path clip-rule="evenodd" d="m20 40c11.0457 0 20-8.9543 20-20 0-11.04569-8.9543-20-20-20-11.04569 0-20 8.95431-20 20 0 11.0457 8.95431 20 20 20z" fill="#000" fill-opacity=".2" fill-rule="evenodd"/><path d="m30.6562 20.4808c.0109 5.6043-4.7772 10.1871-10.6485 10.191-2.5358.0018-4.865-.842-6.6954-2.2522-.476-.3667-.5116-1.0476-.0791-1.4604l.4842-.4621c.3699-.3531.9604-.3918 1.3703-.0814 1.3486 1.0215 3.0552 1.6312 4.9123 1.6312 4.3701 0 7.9062-3.3761 7.9062-7.5469 0-4.1715-3.5368-7.5469-7.9062-7.5469-2.0975 0-4.0025.7781-5.417 2.048l2.1809 2.0817c.4331.4135.1263 1.1203-.4862 1.1203h-6.2465c-.37966 0-.68745-.2938-.68745-.6562v-5.9626c0-.5846.74055-.8774 1.17365-.464l2.1215 2.025c1.913-1.7452 4.5059-2.8172 7.3611-2.8172 5.8786 0 10.6454 4.5437 10.6562 10.1527zm-7.7735 3.2313.4221-.518c.3496-.4291.2687-1.0476-.1809-1.3814l-1.7489-1.2984v-4.2799c0-.5437-.4617-.9844-1.0313-.9844h-.6875c-.5695 0-1.0312.4407-1.0312.9844v5.5638l2.8105 2.0866c.4496.3338 1.0975.2565 1.4472-.1727z" fill="#7373ab"/><path d="m30.6562 20.4808c.0109 5.6043-4.7772 10.1871-10.6485 10.191-2.5358.0018-4.865-.842-6.6954-2.2522-.476-.3667-.5116-1.0476-.0791-1.4604l.4842-.4621c.3699-.3531.9604-.3918 1.3703-.0814 1.3486 1.0215 3.0552 1.6312 4.9123 1.6312 4.3701 0 7.9062-3.3761 7.9062-7.5469 0-4.1715-3.5368-7.5469-7.9062-7.5469-2.0975 0-4.0025.7781-5.417 2.048l2.1809 2.0817c.4331.4135.1263 1.1203-.4862 1.1203h-6.2465c-.37966 0-.68745-.2938-.68745-.6562v-5.9626c0-.5846.74055-.8774 1.17365-.464l2.1215 2.025c1.913-1.7452 4.5059-2.8172 7.3611-2.8172 5.8786 0 10.6454 4.5437 10.6562 10.1527zm-7.7735 3.2313.4221-.518c.3496-.4291.2687-1.0476-.1809-1.3814l-1.7489-1.2984v-4.2799c0-.5437-.4617-.9844-1.0313-.9844h-.6875c-.5695 0-1.0312.4407-1.0312.9844v5.5638l2.8105 2.0866c.4496.3338 1.0975.2565 1.4472-.1727z" fill="#5454d1"/><path d="m30.6562 20.4808c.0109 5.6043-4.7772 10.1871-10.6485 10.191-2.5358.0018-4.865-.842-6.6954-2.2522-.476-.3667-.5116-1.0476-.0791-1.4604l.4842-.4621c.3699-.3531.9604-.3918 1.3703-.0814 1.3486 1.0215 3.0552 1.6312 4.9123 1.6312 4.3701 0 7.9062-3.3761 7.9062-7.5469 0-4.1715-3.5368-7.5469-7.9062-7.5469-2.0975 0-4.0025.7781-5.417 2.048l2.1809 2.0817c.4331.4135.1263 1.1203-.4862 1.1203h-6.2465c-.37966 0-.68745-.2938-.68745-.6562v-5.9626c0-.5846.74055-.8774 1.17365-.464l2.1215 2.025c1.913-1.7452 4.5059-2.8172 7.3611-2.8172 5.8786 0 10.6454 4.5437 10.6562 10.1527zm-7.7735 3.2313.4221-.518c.3496-.4291.2687-1.0476-.1809-1.3814l-1.7489-1.2984v-4.2799c0-.5437-.4617-.9844-1.0313-.9844h-.6875c-.5695 0-1.0312.4407-1.0312.9844v5.5638l2.8105 2.0866c.4496.3338 1.0975.2565 1.4472-.1727z" fill="#fbfbfb"/></svg>