<svg fill="none" height="44" viewBox="0 0 44 44" width="44" xmlns="http://www.w3.org/2000/svg"><g clip-rule="evenodd" fill-rule="evenodd"><path d="m22 44c12.1503 0 22-9.8497 22-22 0-12.15026-9.8497-22-22-22-12.15026 0-22 9.84974-22 22 0 12.1503 9.84974 22 22 22z" fill="#000" fill-opacity=".2"/><path d="m13.5141 17.1527c.0109-.019.0219-.0381.0329-.057l1.3078 2.197 2.2408 3.5769h-2.1031c.4298 3.4847 3.4085 6.1912 7.0075 6.1912 1.9227 0 3.6676-.7734 4.9421-2.0241l1.429 2.372c-1.7111 1.473-3.9362 2.3651-6.3711 2.3651-5.1048 0-9.2957-3.9135-9.7357-8.9042h-2.2643l3.4783-5.774zm15.5019 4.0474c-.3986-3.5182-3.393-6.261-7.016-6.261-1.9367 0-3.6933.7843-4.9703 2.0513l-1.4669-2.3416c1.7197-1.5072 3.9709-2.4227 6.4372-2.4227 5.1288 0 9.3348 3.9501 9.7418 8.974h2.2582l-3.3393 5.3302c-.0788.1502-.1613.2981-.2475.4436l-.0152-.0243-.0153.0244-.8681-1.441-.814-1.3053c.0033-.0098.0066-.0197.0098-.0296l-1.806-2.998z" fill="#fff"/></g></svg>