<svg width="40" height="40" viewBox="0 0 40 40" fill="none" xmlns="http://www.w3.org/2000/svg">
<rect width="40" height="40" rx="20" fill="#000" fill-opacity=".2" fill-rule="evenodd"/>
<path d="M30.0352 20.3086V19.7824C30.0352 19.3455 29.7515 18.9591 29.3346 18.8283L27.9432 18.3916C27.7373 17.401 27.3453 16.4794 26.8122 15.6574L27.4853 14.3128C27.6781 13.9277 27.6027 13.4625 27.2982 13.158L26.9261 12.786C26.6171 12.477 26.1434 12.4044 25.7561 12.6067L24.4566 13.2853C23.6377 12.7472 22.7168 12.3532 21.7281 12.1414L21.2555 10.7213C21.1195 10.3128 20.7373 10.0371 20.3066 10.0371H19.7804C19.3435 10.0371 18.9572 10.3208 18.8263 10.7377L18.3873 12.1365C17.3986 12.3426 16.4771 12.7283 15.6564 13.2605L14.3108 12.587C13.9257 12.3942 13.4605 12.4696 13.156 12.7741L12.784 13.1462C12.475 13.4551 12.4024 13.9289 12.6047 14.3162L13.2824 15.6139C12.7453 16.4311 12.3619 17.3543 12.1497 18.3408L10.7194 18.8168C10.3108 18.9528 10.0352 19.335 10.0352 19.7656V20.2918C10.0352 20.7287 10.3188 21.1151 10.7357 21.2459L12.1228 21.6813C12.3196 22.6711 12.7225 23.5888 13.2586 24.4159L12.585 25.7614C12.3923 26.1465 12.4676 26.6117 12.7721 26.9162L13.1442 27.2883C13.4532 27.5972 13.9269 27.6698 14.3142 27.4676L15.6159 26.7878C16.4395 27.3286 17.3558 27.7333 18.3434 27.9363L18.8148 29.3529C18.9508 29.7614 19.3331 30.0371 19.7637 30.0371H20.2899C20.7268 30.0371 21.1131 29.7534 21.244 29.3366L21.6847 27.9324C22.6724 27.7261 23.5963 27.3468 24.4163 26.8148L25.7595 27.4872C26.1446 27.68 26.6098 27.6046 26.9143 27.3001L27.2863 26.9281C27.5953 26.6191 27.6679 26.1453 27.4656 25.758L26.7849 24.4545C27.3222 23.6365 27.7161 22.7185 27.9279 21.731L29.3509 21.2574C29.7595 21.1215 30.0352 20.7392 30.0352 20.3086ZM24.2841 17.4177C27.1147 22.0096 22.0071 27.117 17.4152 24.2856C16.7556 23.8789 16.1917 23.3148 15.7853 22.655C12.9572 18.0641 18.0626 12.9589 22.6536 15.7875C23.3133 16.194 23.8774 16.758 24.2841 17.4177Z" fill="white"/>
</svg>
