<svg fill="none" height="60" viewBox="0 0 60 60" width="60" xmlns="http://www.w3.org/2000/svg" xmlns:xlink="http://www.w3.org/1999/xlink"><filter id="a" color-interpolation-filters="sRGB" filterUnits="userSpaceOnUse" height="76" width="76" x="-8" y="-8"><feFlood flood-opacity="0" result="BackgroundImageFix"/><feGaussianBlur in="BackgroundImage" stdDeviation="4"/><feComposite in2="SourceAlpha" operator="in" result="effect1_backgroundBlur"/><feBlend in="SourceGraphic" in2="effect1_backgroundBlur" mode="normal" result="shape"/></filter><g filter="url(#a)"><path clip-rule="evenodd" d="m30 60c16.5685 0 30-13.4315 30-30s-13.4315-30-30-30-30 13.4315-30 30 13.4315 30 30 30z" fill="#000" fill-opacity=".4" fill-rule="evenodd"/></g><path d="m29.9732 15.3334c-3.9192.007-7.4775 1.5514-10.1046 4.062l-2.1122-2.1122c-.8942-.8941-2.423-.2609-2.423 1.0037v7.9282c0 .7839.6355 1.4193 1.4194 1.4193h7.9282c1.2645 0 1.8978-1.5288 1.0037-2.423l-2.4691-2.4691c1.8253-1.709 4.1871-2.6558 6.6964-2.6774 5.4644-.0472 10.0705 4.375 10.0232 10.0208-.0448 5.3557-4.3869 9.8498-9.9351 9.8498-2.4323 0-4.731-.8681-6.5426-2.4576-.2805-.2461-.7041-.2311-.968.0327l-2.3456 2.3456c-.2881.2881-.2739.7579.0285 1.031 2.6007 2.3491 6.0471 3.7795 9.8277 3.7795 8.1001 0 14.6666-6.5665 14.6666-14.6666.0001-8.0908-6.6027-14.6812-14.6935-14.6667z" fill="#fafafa"/></svg>