<svg width="40" height="40" viewBox="0 0 40 40" fill="none" xmlns="http://www.w3.org/2000/svg">
<rect width="40" height="40" rx="20" fill="#000" fill-opacity=".2" fill-rule="evenodd"/>
<path d="M13.275 15.7079L17.263 11.7118C17.8927 11.081 18.9708 11.5269 18.9708 12.4182V27.5817C18.9708 28.4733 17.8923 28.9192 17.2628 28.288L13.2747 24.289C13.1915 24.2057 13.1312 24.1054 13.0825 24.0006H11C10.4477 24.0006 10 23.5529 10 23.0006V17.0006C10 16.4484 10.4477 16.0006 11 16.0006H13.0796C13.1285 15.894 13.1905 15.7925 13.275 15.7079Z" fill="white"/>
<path d="M25.1577 13.009C25.5797 12.587 26.2742 12.6274 26.6517 13.0897C28.1998 14.9852 29.1294 17.4047 29.1294 20.0373C29.1294 22.6699 28.1999 25.0893 26.6517 26.9848C26.2742 27.4472 25.5797 27.4876 25.1577 27.0656C24.7988 26.7068 24.7636 26.1338 25.0858 25.7417C26.3622 24.1878 27.1294 22.2006 27.1294 20.0373C27.1294 17.874 26.3622 15.8868 25.0858 14.333C24.7636 13.9409 24.7988 13.3679 25.1577 13.009Z" fill="white"/>
<path d="M23.8088 15.9499C23.4566 15.4619 22.7361 15.4306 22.3105 15.8562L22.3078 15.8588C21.9566 16.2102 21.931 16.7556 22.2173 17.1613C22.7917 17.9753 23.1294 18.9677 23.1294 20.0373C23.1294 21.1069 22.7917 22.0993 22.2173 22.9133C21.931 23.3191 21.9566 23.8645 22.3078 24.2157L22.3105 24.2185C22.7361 24.644 23.4566 24.6128 23.8088 24.1247C24.6395 22.9738 25.1294 21.5617 25.1294 20.0373C25.1294 18.5129 24.6395 17.1008 23.8088 15.9499Z" fill="white"/>
</svg>
