<svg xmlns="http://www.w3.org/2000/svg" viewBox="0 0 326 241" fill="#9A9A9A">
  <path d="M295 4c11 0 20 9 20 20v180c0 11-9 20-20 20H31c-11 0-20-9-20-20V24c0-11 9-20 20-20h264Z"/>
  <ellipse fill="#FFF" cx="163" cy="112.2" rx="64.2" ry="64" transform="rotate(90 163 112)"/>
  <path d="M123 99c17-3 36-22 44-34-1 19-14 33-21 39 14-4 46-7 64-6-17 13-37 22-57 33 13-3 36 8 41 18-15-7-44-9-57-3 0-14-6-35-14-47Z"/>
  <path fill="none" stroke="#FFF" stroke-width="10.3" d="M310 24v180c0 8-7 15-15 15H31c-8 0-15-7-15-15V24c0-8 7-15 15-15h264c8 0 15 7 15 15Z"/>
</svg>
