<svg width="100%" height="100%" viewBox="0 0 225 100" fill="none" xmlns="http://www.w3.org/2000/svg">
<path d="M192.976 38.8943C181.885 39.562 186.865 53.5141 199.131 52.7885C211.121 52.0668 204.802 38.1957 192.976 38.8943Z" fill="#F68B2A"/>
<path d="M188.291 95.6906C181.968 95.6906 175.786 93.8797 170.528 90.487C165.269 87.0943 161.171 82.2722 158.751 76.6303C156.331 70.9885 155.698 64.7803 156.932 58.791C158.165 52.8016 161.211 47.3001 165.682 42.982C170.154 38.6639 175.851 35.7232 182.054 34.5319C188.256 33.3405 194.685 33.952 200.527 36.2889C206.37 38.6258 211.364 42.5833 214.877 47.6608C218.39 52.7383 220.266 58.7079 220.266 64.8146C220.266 73.0034 216.897 80.8568 210.901 86.6472C204.904 92.4376 196.772 95.6906 188.291 95.6906ZM188.291 30.2759C181.219 30.2752 174.306 32.2996 168.425 36.0932C162.545 39.8868 157.961 45.2791 155.255 51.5883C152.548 57.8974 151.84 64.84 153.219 71.5379C154.599 78.2359 158.004 84.3884 163.005 89.2173C168.005 94.0462 174.377 97.3347 181.313 98.6668C188.249 99.9989 195.439 99.3149 201.972 96.7011C208.506 94.0874 214.09 89.6613 218.019 83.9828C221.947 78.3043 224.043 71.6283 224.043 64.7991C224.043 55.643 220.276 46.8619 213.571 40.3876C206.867 33.9132 197.773 30.2759 188.291 30.2759Z" fill="#F68B2A"/>
<path d="M187.216 6.17722C178.727 12.3794 180.202 21.8738 180.202 21.8738C180.202 21.8738 174.866 8.51993 167.94 0.330078C167.005 10.8511 170.422 24.7954 170.422 24.7954C170.422 24.7954 166.085 16.1502 155.458 15.6677C164.251 20.5654 167.688 29.3767 168.471 31.7387C173.729 28.6149 179.736 26.8646 185.905 26.6596C185.21 24.4558 182.736 15.1814 187.216 6.20423" fill="#F68B2A"/>
<path d="M10.8147 62.5108C10.8462 62.0692 10.781 61.6261 10.6233 61.2105C10.4656 60.7949 10.2189 60.416 9.89939 60.0986C9.29188 59.548 8.314 59.2714 6.96575 59.2688H3.85226V65.7258H6.96575C9.53169 65.7258 10.8147 64.6541 10.8147 62.5108ZM3.85226 68.1804V75.4015H0.73877V56.791H7.29349C9.51037 56.791 11.1797 57.3056 12.3015 58.3348C13.4232 59.364 13.9828 60.7612 13.9801 62.5263C13.9801 64.2862 13.4072 65.6705 12.2615 66.6791C11.1157 67.6877 9.45975 68.1933 7.29349 68.1959L3.85226 68.1804Z" fill="white"/>
<path d="M19.8234 65.8338H23.2646C25.7746 65.8338 27.0309 64.7609 27.0336 62.615C27.0595 62.178 26.9915 61.7406 26.834 61.3301C26.6765 60.9197 26.4328 60.5451 26.1183 60.2299C25.5055 59.6587 24.5542 59.3731 23.2646 59.3731H19.8234V65.8338ZM26.8417 75.4015L22.0336 67.9566H19.8234V75.39H16.7099V56.791H23.5044C25.7053 56.791 27.376 57.3056 28.5164 58.3348C29.0859 58.8651 29.5325 59.506 29.8266 60.2152C30.1208 60.9244 30.2559 61.6858 30.223 62.4491C30.2782 63.7544 29.8248 65.0324 28.952 66.0307C28.1047 66.9647 26.8804 67.5629 25.279 67.8254L30.3309 75.39L26.8417 75.4015Z" fill="white"/>
<path d="M43.6563 69.0489L40.4588 60.3496L37.2614 69.0489H43.6563ZM44.5316 71.3646H36.3941L34.9193 75.3977H31.59L38.6883 57.0767H42.2854L49.3557 75.3977H46.0264L44.5316 71.3646Z" fill="white"/>
<path d="M65.0629 58.2653C66.589 59.3566 67.663 60.9368 68.0924 62.7231H64.8151C64.4067 61.7342 63.6866 60.8944 62.7567 60.3225C61.7384 59.7084 60.5556 59.3971 59.3554 59.427C58.2207 59.4111 57.1029 59.694 56.1221 60.2453C55.1602 60.7924 54.3828 61.5966 53.8839 62.561C53.3249 63.6581 53.0505 64.8701 53.0845 66.0924C53.0477 67.3605 53.3288 68.6183 53.9038 69.7589C54.4159 70.7358 55.2191 71.5423 56.21 72.0746C57.2695 72.6268 58.4595 72.9035 59.6632 72.8774C61.1749 72.9091 62.6448 72.3974 63.7879 71.4417C64.953 70.4266 65.6841 69.0284 65.8382 67.5204H58.7839V65.3051H68.4721V68.1804C68.2698 69.5188 67.7515 70.7945 66.9573 71.9087C66.1536 73.0355 65.0765 73.9551 63.8199 74.5872C62.4403 75.272 60.9063 75.6154 59.3554 75.5868C57.6169 75.6201 55.901 75.2015 54.3875 74.3749C52.9665 73.585 51.8097 72.4184 51.0541 71.0133C50.2834 69.481 49.883 67.7997 49.883 66.0963C49.883 64.3928 50.2834 62.7115 51.0541 61.1793C51.8054 59.7802 52.9568 58.6189 54.3715 57.8331C55.8831 57.0133 57.5942 56.5989 59.3275 56.6328C61.6216 56.6328 63.5334 57.177 65.0629 58.2653Z" fill="white"/>
<path d="M90.4506 57.0805V75.4015H87.3092V61.6655L81.8216 75.4015H79.0918L73.5762 61.6655V75.4015H70.4667V57.0805H74.2317L80.5106 71.7118L86.6816 57.0805H90.4506Z" fill="white"/>
<path d="M104.811 69.0489L101.613 60.3496L98.416 69.0489H104.811ZM105.686 71.3646H97.5487L96.0739 75.3977H92.7446L99.8428 57.0767H103.408L110.478 75.3977H107.149L105.686 71.3646Z" fill="white"/>
<path d="M123.812 56.7871V59.2147H118.432V75.4014H115.295V59.2147H109.943V56.7871H123.812Z" fill="white"/>
<path d="M128.588 56.7871H125.474V75.4014H128.588V56.7871Z" fill="white"/>
<path d="M146.198 58.3465C147.781 59.5258 148.9 61.1907 149.371 63.0667H146.066C145.643 61.9807 144.885 61.0459 143.896 60.3882C142.815 59.7038 141.542 59.3587 140.251 59.4001C139.167 59.3842 138.102 59.6682 137.181 60.2184C136.259 60.7814 135.521 61.584 135.051 62.5341C134.537 63.646 134.271 64.8499 134.271 66.0674C134.271 67.285 134.537 68.4889 135.051 69.6008C135.52 70.5569 136.258 71.3662 137.181 71.9358C138.103 72.4849 139.168 72.7675 140.251 72.7502C141.542 72.7916 142.815 72.4465 143.896 71.7621C144.879 71.1111 145.636 70.1882 146.066 69.1145H149.371C148.901 70.986 147.783 72.646 146.202 73.8192C144.638 74.9694 142.673 75.5444 140.307 75.5444C138.613 75.5764 136.943 75.1628 135.474 74.348C134.081 73.5554 132.953 72.3925 132.225 70.9979C131.47 69.4614 131.078 67.7818 131.078 66.081C131.078 64.3801 131.47 62.7005 132.225 61.1639C132.955 59.7676 134.082 58.6014 135.474 57.8023C136.94 56.979 138.611 56.5598 140.307 56.5904C142.673 56.5904 144.638 57.1706 146.202 58.3311" fill="white"/>
<path d="M171.014 62.5108C171.044 62.0693 170.979 61.6265 170.821 61.211C170.663 60.7955 170.417 60.4166 170.098 60.0986C169.487 59.5467 168.5 59.2688 167.165 59.2688H164.051V65.7258H167.165C169.731 65.7258 171.014 64.6541 171.014 62.5108ZM164.051 68.1804V75.4015H160.938V56.791H167.492C169.709 56.791 171.379 57.3056 172.5 58.3348C173.622 59.364 174.182 60.7612 174.179 62.5263C174.179 64.2862 173.606 65.6705 172.46 66.6791C171.315 67.6877 169.659 68.1933 167.492 68.1959L164.051 68.1804Z" fill="white"/>
<path d="M179.527 73.0548H186.189V75.4014H176.417V56.7871H179.527V73.0548Z" fill="white"/>
<path d="M199.567 69.0489L196.369 60.3496L193.172 69.0489H199.567ZM200.442 71.3646H192.308L190.834 75.3977H187.5L194.599 57.0767H198.196L205.27 75.3977H201.937L200.442 71.3646Z" fill="white"/>
<path d="M217.748 56.7871L211.333 68.6241V75.4014H208.192V68.6241L201.753 56.7871H205.354L209.778 65.4092L214.203 56.7871H217.748Z" fill="white"/>
</svg>
