<svg xmlns="http://www.w3.org/2000/svg" width="24" height="18" fill="none"><path fill="#de2910" d="M0 0h24v18H0z"/><path fill="#ffde02" d="m7.42 2.65.5.24.39-.38-.08.54.48.26-.53.1-.1.53-.26-.48-.54.08.38-.4-.24-.49Zm3.11 1.96-.23.5.37.39-.53-.08-.26.48-.1-.53-.53-.1.48-.26-.08-.54.4.38.48-.24ZM9.9 7.13l.18.52h.54l-.43.34.15.52-.44-.31-.45.3L9.6 8l-.44-.33.55-.01.18-.52ZM7.42 9.32l.5.24.39-.38-.08.54.48.26-.53.1-.1.53-.26-.48-.54.07.38-.4-.24-.48ZM4.67 3.97l.62 1.78 1.88.04-1.5 1.14.54 1.8-1.54-1.08-1.55 1.08.55-1.8-1.5-1.14 1.88-.04.62-1.78Z"/></svg>
