<svg xmlns="http://www.w3.org/2000/svg" width="24" height="18" fill="none" ><path fill="#eee" d="M0 0h24v18H0z"/><path fill="#003478" d="M15.04 8.5a2.08 2.08 0 0 0-2.89.5 2.08 2.08 0 0 1-3.4-2.38 4.15 4.15 0 1 0 6.8 4.76c.66-.94.43-2.23-.5-2.89Z"/><path fill="#292f33" d="m16.54 14.24 1.33-1.59.53.45-1.33 1.59-.53-.45Zm1.78-2.12 1.33-1.59.53.45-1.33 1.59-.53-.45Zm-.72 3.01 1.33-1.59.53.45-1.33 1.59-.53-.45Zm1.78-2.12 1.34-1.59.53.45-1.34 1.59-.53-.45Zm-.72 3.01 1.33-1.59.53.45-1.33 1.59-.53-.45Zm1.78-2.12 1.33-1.59.53.45-1.33 1.59-.53-.45Zm0-9.8.53-.45 1.34 1.6-.53.44-1.34-1.6Zm-1.78-2.12.53-.45 1.34 1.6-.54.44-1.33-1.6Zm-1.06.89.53-.45 3.11 3.71-.53.45-3.11-3.71Zm-1.06.89.53-.45 1.33 1.6-.53.44-1.33-1.6Zm1.78 2.12.53-.45 1.33 1.6-.53.44-1.33-1.6Zm-14.2 5.1.53-.45 3.12 3.71-.53.45-3.12-3.71Zm-1.06.89.53-.45 1.34 1.6-.53.44-1.34-1.6Zm1.78 2.12.53-.45 1.34 1.6-.53.44-1.34-1.6ZM2 12.76l.53-.45 3.12 3.71-.53.45L2 12.76Zm0-7.52 3.11-3.7.53.44-3.11 3.7L2 5.25Zm1.06.9 3.12-3.72.53.45-3.12 3.7-.53-.44Zm1.06.88 3.12-3.7.53.44-3.12 3.7-.53-.44Z"/><path fill="#c60c30" d="M14.54 5.6a4.15 4.15 0 0 0-5.79 1.02A2.08 2.08 0 0 0 12.15 9a2.08 2.08 0 0 1 3.4 2.38 4.15 4.15 0 0 0-1.01-5.78Z"/></svg>
